<?xml version="1.0" encoding="UTF-8" standalone="no"?>
<!DOCTYPE svg PUBLIC "-//W3C//DTD SVG 1.1//EN"
 "http://www.w3.org/Graphics/SVG/1.1/DTD/svg11.dtd">
<!-- Generated by graphviz version 13.1.0 (20250701.0955)
 -->
<!-- Title: as3935_basic_deinit Pages: 1 -->
<svg width="275pt" height="66pt"
 viewBox="0.00 0.00 275.00 66.00" xmlns="http://www.w3.org/2000/svg" xmlns:xlink="http://www.w3.org/1999/xlink">
<g id="graph0" class="graph" transform="scale(1 1) rotate(0) translate(4 62)">
<title>as3935_basic_deinit</title>
<!-- Node1 -->
<g id="Node000001" class="node">
<title>Node1</title>
<g id="a_Node000001"><a xlink:title="basic example deinit">
<polygon fill="#999999" stroke="#666666" points="104.5,-39 0,-39 0,-19 104.5,-19 104.5,-39"/>
<text xml:space="preserve" text-anchor="middle" x="52.25" y="-25.5" font-family="Helvetica,sans-Serif" font-size="10.00">as3935_basic_deinit</text>
</a>
</g>
</g>
<!-- Node2 -->
<g id="Node000002" class="node">
<title>Node2</title>
<g id="a_Node000002"><a xlink:href="group__as3935__basic__driver.html#ga611df6ea3e1ef804372f813c20fc9960" target="_top" xlink:title="close the chip">
<polygon fill="white" stroke="#666666" points="241.62,-58 165.62,-58 165.62,-38 241.62,-38 241.62,-58"/>
<text xml:space="preserve" text-anchor="middle" x="203.62" y="-44.5" font-family="Helvetica,sans-Serif" font-size="10.00">as3935_deinit</text>
</a>
</g>
</g>
<!-- Node1&#45;&gt;Node2 -->
<g id="edge1_Node000001_Node000002" class="edge">
<title>Node1&#45;&gt;Node2</title>
<g id="a_edge1_Node000001_Node000002"><a xlink:title=" ">
<path fill="none" stroke="#63b8ff" d="M104.66,-35.54C120.68,-37.58 138.3,-39.82 154.12,-41.83"/>
<polygon fill="#63b8ff" stroke="#63b8ff" points="153.41,-45.27 163.77,-43.06 154.29,-38.32 153.41,-45.27"/>
</a>
</g>
</g>
<!-- Node3 -->
<g id="Node000003" class="node">
<title>Node3</title>
<g id="a_Node000003"><a xlink:href="group__as3935__basic__driver.html#ga17e77916c08797628c6a204f7f867f98" target="_top" xlink:title="set power down">
<polygon fill="white" stroke="#666666" points="266.75,-20 140.5,-20 140.5,0 266.75,0 266.75,-20"/>
<text xml:space="preserve" text-anchor="middle" x="203.62" y="-6.5" font-family="Helvetica,sans-Serif" font-size="10.00">as3935_set_power_down</text>
</a>
</g>
</g>
<!-- Node1&#45;&gt;Node3 -->
<g id="edge2_Node000001_Node000003" class="edge">
<title>Node1&#45;&gt;Node3</title>
<g id="a_edge2_Node000001_Node000003"><a xlink:title=" ">
<path fill="none" stroke="#63b8ff" d="M104.66,-22.46C112.4,-21.48 120.51,-20.44 128.62,-19.41"/>
<polygon fill="#63b8ff" stroke="#63b8ff" points="129.05,-22.89 138.53,-18.15 128.17,-15.94 129.05,-22.89"/>
</a>
</g>
</g>
</g>
</svg>
