<?xml version="1.0" encoding="UTF-8" standalone="no"?>
<!DOCTYPE svg PUBLIC "-//W3C//DTD SVG 1.1//EN"
 "http://www.w3.org/Graphics/SVG/1.1/DTD/svg11.dtd">
<!-- Generated by graphviz version 13.1.0 (20250701.0955)
 -->
<!-- Title: as3935_basic_init Pages: 1 -->
<svg width="276pt" height="1334pt"
 viewBox="0.00 0.00 276.00 1334.00" xmlns="http://www.w3.org/2000/svg" xmlns:xlink="http://www.w3.org/1999/xlink">
<g id="graph0" class="graph" transform="scale(1 1) rotate(0) translate(4 1330)">
<title>as3935_basic_init</title>
<!-- Node1 -->
<g id="Node000001" class="node">
<title>Node1</title>
<g id="a_Node000001"><a xlink:title="basic example init">
<polygon fill="#999999" stroke="#666666" points="94,-688 0,-688 0,-668 94,-668 94,-688"/>
<text xml:space="preserve" text-anchor="middle" x="47" y="-674.5" font-family="Helvetica,sans-Serif" font-size="10.00">as3935_basic_init</text>
</a>
</g>
</g>
<!-- Node2 -->
<g id="Node000002" class="node">
<title>Node2</title>
<g id="a_Node000002"><a xlink:href="group__as3935__basic__driver.html#ga611df6ea3e1ef804372f813c20fc9960" target="_top" xlink:title="close the chip">
<polygon fill="white" stroke="#666666" points="237.12,-1326 161.12,-1326 161.12,-1306 237.12,-1306 237.12,-1326"/>
<text xml:space="preserve" text-anchor="middle" x="199.12" y="-1312.5" font-family="Helvetica,sans-Serif" font-size="10.00">as3935_deinit</text>
</a>
</g>
</g>
<!-- Node1&#45;&gt;Node2 -->
<g id="edge1_Node000001_Node000002" class="edge">
<title>Node1&#45;&gt;Node2</title>
<g id="a_edge1_Node000001_Node000002"><a xlink:title=" ">
<path fill="none" stroke="#63b8ff" d="M47.87,-688.33C47.19,-761.49 46.64,-1201.05 130,-1297 135.31,-1303.11 142.4,-1307.34 150.01,-1310.24"/>
<polygon fill="#63b8ff" stroke="#63b8ff" points="148.94,-1313.57 159.52,-1313.09 150.94,-1306.86 148.94,-1313.57"/>
</a>
</g>
</g>
<!-- Node3 -->
<g id="Node000003" class="node">
<title>Node3</title>
<g id="a_Node000003"><a xlink:href="group__as3935__basic__driver.html#ga938b9d9e966ef8758a26fb7fac30f1fc" target="_top" xlink:title="initialize the chip">
<polygon fill="white" stroke="#666666" points="231.88,-1288 166.38,-1288 166.38,-1268 231.88,-1268 231.88,-1288"/>
<text xml:space="preserve" text-anchor="middle" x="199.12" y="-1274.5" font-family="Helvetica,sans-Serif" font-size="10.00">as3935_init</text>
</a>
</g>
</g>
<!-- Node1&#45;&gt;Node3 -->
<g id="edge2_Node000001_Node000003" class="edge">
<title>Node1&#45;&gt;Node3</title>
<g id="a_edge2_Node000001_Node000003"><a xlink:title=" ">
<path fill="none" stroke="#63b8ff" d="M47.97,-688.15C47.99,-758.16 51.46,-1169.36 130,-1259 136.46,-1266.37 145.5,-1270.99 154.9,-1273.86"/>
<polygon fill="#63b8ff" stroke="#63b8ff" points="153.95,-1277.23 164.49,-1276.13 155.57,-1270.42 153.95,-1277.23"/>
</a>
</g>
</g>
<!-- Node4 -->
<g id="Node000004" class="node">
<title>Node4</title>
<g id="a_Node000004"><a xlink:href="group__as3935__interface__driver.html#ga01eb0688be38a68d2bbe0d6944a5e523" target="_top" xlink:title="interface print format data">
<polygon fill="white" stroke="#666666" points="260,-1250 138.25,-1250 138.25,-1218 260,-1218 260,-1250"/>
<text xml:space="preserve" text-anchor="start" x="146.25" y="-1236.5" font-family="Helvetica,sans-Serif" font-size="10.00">as3935_interface_debug</text>
<text xml:space="preserve" text-anchor="middle" x="199.12" y="-1224.5" font-family="Helvetica,sans-Serif" font-size="10.00">_print</text>
</a>
</g>
</g>
<!-- Node1&#45;&gt;Node4 -->
<g id="edge3_Node000001_Node000004" class="edge">
<title>Node1&#45;&gt;Node4</title>
<g id="a_edge3_Node000001_Node000004"><a xlink:title=" ">
<path fill="none" stroke="#63b8ff" d="M48.21,-688.48C49.75,-755.61 61.3,-1125.1 130,-1209 130.34,-1209.41 130.69,-1209.82 131.04,-1210.22"/>
<polygon fill="#63b8ff" stroke="#63b8ff" points="128.49,-1212.63 138.28,-1216.68 133.14,-1207.41 128.49,-1212.63"/>
</a>
</g>
</g>
<!-- Node5 -->
<g id="Node000005" class="node">
<title>Node5</title>
<g id="a_Node000005"><a xlink:href="group__as3935__interface__driver.html#ga3998b8220649daf61b9c5946fc06a6f9" target="_top" xlink:title="interface delay ms">
<polygon fill="white" stroke="#666666" points="267.88,-1200 130.38,-1200 130.38,-1180 267.88,-1180 267.88,-1200"/>
<text xml:space="preserve" text-anchor="middle" x="199.12" y="-1186.5" font-family="Helvetica,sans-Serif" font-size="10.00">as3935_interface_delay_ms</text>
</a>
</g>
</g>
<!-- Node1&#45;&gt;Node5 -->
<g id="edge4_Node000001_Node000005" class="edge">
<title>Node1&#45;&gt;Node5</title>
<g id="a_edge4_Node000001_Node000005"><a xlink:title=" ">
<path fill="none" stroke="#63b8ff" d="M48.25,-688.21C50.04,-752.06 62.74,-1096.12 130,-1171 130.58,-1171.65 131.19,-1172.28 131.81,-1172.89"/>
<polygon fill="#63b8ff" stroke="#63b8ff" points="129.54,-1175.56 139.63,-1178.77 133.75,-1169.96 129.54,-1175.56"/>
</a>
</g>
</g>
<!-- Node6 -->
<g id="Node000006" class="node">
<title>Node6</title>
<g id="a_Node000006"><a xlink:href="group__as3935__interface__driver.html#ga3a2a14430e6ab774bde295f773307644" target="_top" xlink:title="interface iic bus deinit">
<polygon fill="white" stroke="#666666" points="251.75,-1162 146.5,-1162 146.5,-1130 251.75,-1130 251.75,-1162"/>
<text xml:space="preserve" text-anchor="start" x="154.5" y="-1148.5" font-family="Helvetica,sans-Serif" font-size="10.00">as3935_interface_iic</text>
<text xml:space="preserve" text-anchor="middle" x="199.12" y="-1136.5" font-family="Helvetica,sans-Serif" font-size="10.00">_deinit</text>
</a>
</g>
</g>
<!-- Node1&#45;&gt;Node6 -->
<g id="edge5_Node000001_Node000006" class="edge">
<title>Node1&#45;&gt;Node6</title>
<g id="a_edge5_Node000001_Node000006"><a xlink:title=" ">
<path fill="none" stroke="#63b8ff" d="M48.55,-688.26C51.94,-748.14 71.85,-1052.12 130,-1121 132.06,-1123.44 134.37,-1125.64 136.88,-1127.62"/>
<polygon fill="#63b8ff" stroke="#63b8ff" points="134.46,-1130.22 144.74,-1132.75 138.28,-1124.36 134.46,-1130.22"/>
</a>
</g>
</g>
<!-- Node7 -->
<g id="Node000007" class="node">
<title>Node7</title>
<g id="a_Node000007"><a xlink:href="group__as3935__interface__driver.html#ga8c8f7d742e98f3ba2c5d62988dec632a" target="_top" xlink:title="interface iic bus init">
<polygon fill="white" stroke="#666666" points="260.75,-1112 137.5,-1112 137.5,-1092 260.75,-1092 260.75,-1112"/>
<text xml:space="preserve" text-anchor="middle" x="199.12" y="-1098.5" font-family="Helvetica,sans-Serif" font-size="10.00">as3935_interface_iic_init</text>
</a>
</g>
</g>
<!-- Node1&#45;&gt;Node7 -->
<g id="edge6_Node000001_Node000007" class="edge">
<title>Node1&#45;&gt;Node7</title>
<g id="a_edge6_Node000001_Node000007"><a xlink:title=" ">
<path fill="none" stroke="#63b8ff" d="M48.65,-688.18C52.49,-745.03 73.93,-1022.73 130,-1083 130.6,-1083.64 131.21,-1084.26 131.84,-1084.86"/>
<polygon fill="#63b8ff" stroke="#63b8ff" points="129.62,-1087.57 139.75,-1090.67 133.76,-1081.93 129.62,-1087.57"/>
</a>
</g>
</g>
<!-- Node8 -->
<g id="Node000008" class="node">
<title>Node8</title>
<g id="a_Node000008"><a xlink:href="group__as3935__interface__driver.html#ga6787a215dfb3629cbfa7813084893f42" target="_top" xlink:title="interface iic bus read">
<polygon fill="white" stroke="#666666" points="263.75,-1074 134.5,-1074 134.5,-1054 263.75,-1054 263.75,-1074"/>
<text xml:space="preserve" text-anchor="middle" x="199.12" y="-1060.5" font-family="Helvetica,sans-Serif" font-size="10.00">as3935_interface_iic_read</text>
</a>
</g>
</g>
<!-- Node1&#45;&gt;Node8 -->
<g id="edge7_Node000001_Node000008" class="edge">
<title>Node1&#45;&gt;Node8</title>
<g id="a_edge7_Node000001_Node000008"><a xlink:title=" ">
<path fill="none" stroke="#63b8ff" d="M48.89,-688.27C53.75,-742.08 78.76,-991.02 130,-1045 130.72,-1045.76 131.47,-1046.49 132.24,-1047.19"/>
<polygon fill="#63b8ff" stroke="#63b8ff" points="129.95,-1049.86 140.13,-1052.8 134.01,-1044.15 129.95,-1049.86"/>
</a>
</g>
</g>
<!-- Node9 -->
<g id="Node000009" class="node">
<title>Node9</title>
<g id="a_Node000009"><a xlink:href="group__as3935__interface__driver.html#ga3111a41f05f0cf7806863ebcc5134bd8" target="_top" xlink:title="interface iic bus write">
<polygon fill="white" stroke="#666666" points="251.75,-1036 146.5,-1036 146.5,-1004 251.75,-1004 251.75,-1036"/>
<text xml:space="preserve" text-anchor="start" x="154.5" y="-1022.5" font-family="Helvetica,sans-Serif" font-size="10.00">as3935_interface_iic</text>
<text xml:space="preserve" text-anchor="middle" x="199.12" y="-1010.5" font-family="Helvetica,sans-Serif" font-size="10.00">_write</text>
</a>
</g>
</g>
<!-- Node1&#45;&gt;Node9 -->
<g id="edge8_Node000001_Node000009" class="edge">
<title>Node1&#45;&gt;Node9</title>
<g id="a_edge8_Node000001_Node000009"><a xlink:title=" ">
<path fill="none" stroke="#63b8ff" d="M47.47,-688.34C45.83,-731.77 45.27,-901.48 130,-995 131.96,-997.16 134.13,-999.14 136.44,-1000.95"/>
<polygon fill="#63b8ff" stroke="#63b8ff" points="134.43,-1003.82 144.74,-1006.29 138.22,-997.93 134.43,-1003.82"/>
</a>
</g>
</g>
<!-- Node10 -->
<g id="Node000010" class="node">
<title>Node10</title>
<g id="a_Node000010"><a xlink:href="group__as3935__interface__driver.html#gaaeae14c6ebb1809ab9811a1fe0f81c97" target="_top" xlink:title="interface spi bus deinit">
<polygon fill="white" stroke="#666666" points="253.25,-986 145,-986 145,-954 253.25,-954 253.25,-986"/>
<text xml:space="preserve" text-anchor="start" x="153" y="-972.5" font-family="Helvetica,sans-Serif" font-size="10.00">as3935_interface_spi</text>
<text xml:space="preserve" text-anchor="middle" x="199.12" y="-960.5" font-family="Helvetica,sans-Serif" font-size="10.00">_deinit</text>
</a>
</g>
</g>
<!-- Node1&#45;&gt;Node10 -->
<g id="edge9_Node000001_Node000010" class="edge">
<title>Node1&#45;&gt;Node10</title>
<g id="a_edge9_Node000001_Node000010"><a xlink:title=" ">
<path fill="none" stroke="#63b8ff" d="M48.07,-688.29C48.88,-727.32 56.95,-867.92 130,-945 131.56,-946.65 133.24,-948.18 135.01,-949.62"/>
<polygon fill="#63b8ff" stroke="#63b8ff" points="133.01,-952.5 143.27,-955.16 136.91,-946.68 133.01,-952.5"/>
</a>
</g>
</g>
<!-- Node11 -->
<g id="Node000011" class="node">
<title>Node11</title>
<g id="a_Node000011"><a xlink:href="group__as3935__interface__driver.html#ga9ad23a7e552a74ace81c931f815cbc75" target="_top" xlink:title="interface spi bus init">
<polygon fill="white" stroke="#666666" points="262.25,-936 136,-936 136,-916 262.25,-916 262.25,-936"/>
<text xml:space="preserve" text-anchor="middle" x="199.12" y="-922.5" font-family="Helvetica,sans-Serif" font-size="10.00">as3935_interface_spi_init</text>
</a>
</g>
</g>
<!-- Node1&#45;&gt;Node11 -->
<g id="edge10_Node000001_Node000011" class="edge">
<title>Node1&#45;&gt;Node11</title>
<g id="a_edge10_Node000001_Node000011"><a xlink:title=" ">
<path fill="none" stroke="#63b8ff" d="M48.49,-688.47C50.76,-724.55 63.23,-844.86 130,-907 130.92,-907.86 131.88,-908.68 132.87,-909.46"/>
<polygon fill="#63b8ff" stroke="#63b8ff" points="130.88,-912.35 141.2,-914.75 134.64,-906.44 130.88,-912.35"/>
</a>
</g>
</g>
<!-- Node12 -->
<g id="Node000012" class="node">
<title>Node12</title>
<g id="a_Node000012"><a xlink:href="group__as3935__interface__driver.html#gaabbc8fcba34faeb02dfaf55db3cb7daa" target="_top" xlink:title="interface spi bus read">
<polygon fill="white" stroke="#666666" points="265.25,-898 133,-898 133,-878 265.25,-878 265.25,-898"/>
<text xml:space="preserve" text-anchor="middle" x="199.12" y="-884.5" font-family="Helvetica,sans-Serif" font-size="10.00">as3935_interface_spi_read</text>
</a>
</g>
</g>
<!-- Node1&#45;&gt;Node12 -->
<g id="edge11_Node000001_Node000012" class="edge">
<title>Node1&#45;&gt;Node12</title>
<g id="a_edge11_Node000001_Node000012"><a xlink:title=" ">
<path fill="none" stroke="#63b8ff" d="M49.27,-688.07C53.8,-719.78 72.14,-818.4 130,-869 131.12,-869.98 132.28,-870.91 133.49,-871.79"/>
<polygon fill="#63b8ff" stroke="#63b8ff" points="131.69,-874.79 142.07,-876.88 135.25,-868.77 131.69,-874.79"/>
</a>
</g>
</g>
<!-- Node13 -->
<g id="Node000013" class="node">
<title>Node13</title>
<g id="a_Node000013"><a xlink:href="group__as3935__interface__driver.html#gac3afbc4543ca2405b26059461fe94237" target="_top" xlink:title="interface spi bus write">
<polygon fill="white" stroke="#666666" points="253.25,-860 145,-860 145,-828 253.25,-828 253.25,-860"/>
<text xml:space="preserve" text-anchor="start" x="153" y="-846.5" font-family="Helvetica,sans-Serif" font-size="10.00">as3935_interface_spi</text>
<text xml:space="preserve" text-anchor="middle" x="199.12" y="-834.5" font-family="Helvetica,sans-Serif" font-size="10.00">_write</text>
</a>
</g>
</g>
<!-- Node1&#45;&gt;Node13 -->
<g id="edge12_Node000001_Node000013" class="edge">
<title>Node1&#45;&gt;Node13</title>
<g id="a_edge12_Node000001_Node000013"><a xlink:title=" ">
<path fill="none" stroke="#63b8ff" d="M51.3,-688.49C59.95,-714.38 85.74,-781.88 130,-819 131.67,-820.4 133.42,-821.72 135.23,-822.97"/>
<polygon fill="#63b8ff" stroke="#63b8ff" points="133.09,-825.77 143.47,-827.88 136.67,-819.75 133.09,-825.77"/>
</a>
</g>
</g>
<!-- Node14 -->
<g id="Node000014" class="node">
<title>Node14</title>
<g id="a_Node000014"><a xlink:href="group__as3935__basic__driver.html#ga482e8c9e6c152d489a20296100af4919" target="_top" xlink:title="convert the internal tuning capacitor to the register raw data">
<polygon fill="white" stroke="#666666" points="257,-810 141.25,-810 141.25,-766 257,-766 257,-810"/>
<text xml:space="preserve" text-anchor="start" x="149.25" y="-796.5" font-family="Helvetica,sans-Serif" font-size="10.00">as3935_internal_tuning</text>
<text xml:space="preserve" text-anchor="start" x="149.25" y="-784.5" font-family="Helvetica,sans-Serif" font-size="10.00">_capacitor_convert_to</text>
<text xml:space="preserve" text-anchor="middle" x="199.12" y="-772.5" font-family="Helvetica,sans-Serif" font-size="10.00">_register</text>
</a>
</g>
</g>
<!-- Node1&#45;&gt;Node14 -->
<g id="edge13_Node000001_Node000014" class="edge">
<title>Node1&#45;&gt;Node14</title>
<g id="a_edge13_Node000001_Node000014"><a xlink:title=" ">
<path fill="none" stroke="#63b8ff" d="M56.67,-688.38C70.72,-704.69 99.92,-736.56 130,-757 131.55,-758.05 133.14,-759.09 134.77,-760.1"/>
<polygon fill="#63b8ff" stroke="#63b8ff" points="132.65,-762.92 143.05,-764.9 136.16,-756.86 132.65,-762.92"/>
</a>
</g>
</g>
<!-- Node15 -->
<g id="Node000015" class="node">
<title>Node15</title>
<g id="a_Node000015"><a xlink:href="group__as3935__basic__driver.html#gad33a9915b302e1ac9b1f59235f902663" target="_top" xlink:title="reset to default">
<polygon fill="white" stroke="#666666" points="253.62,-748 144.62,-748 144.62,-728 253.62,-728 253.62,-748"/>
<text xml:space="preserve" text-anchor="middle" x="199.12" y="-734.5" font-family="Helvetica,sans-Serif" font-size="10.00">as3935_reset_default</text>
</a>
</g>
</g>
<!-- Node1&#45;&gt;Node15 -->
<g id="edge14_Node000001_Node000015" class="edge">
<title>Node1&#45;&gt;Node15</title>
<g id="a_edge14_Node000001_Node000015"><a xlink:title=" ">
<path fill="none" stroke="#63b8ff" d="M66.43,-688.49C82.75,-697.48 107.43,-710.3 130,-719 134.9,-720.89 140.06,-722.67 145.26,-724.34"/>
<polygon fill="#63b8ff" stroke="#63b8ff" points="143.89,-727.58 154.47,-727.15 145.93,-720.89 143.89,-727.58"/>
</a>
</g>
</g>
<!-- Node16 -->
<g id="Node000016" class="node">
<title>Node16</title>
<g id="a_Node000016"><a xlink:href="group__as3935__basic__driver.html#gaa6fc41f9b8b378b2cd59b401c4f62658" target="_top" xlink:title="set the iic address pin">
<polygon fill="white" stroke="#666666" points="253.25,-710 145,-710 145,-690 253.25,-690 253.25,-710"/>
<text xml:space="preserve" text-anchor="middle" x="199.12" y="-696.5" font-family="Helvetica,sans-Serif" font-size="10.00">as3935_set_addr_pin</text>
</a>
</g>
</g>
<!-- Node1&#45;&gt;Node16 -->
<g id="edge15_Node000001_Node000016" class="edge">
<title>Node1&#45;&gt;Node16</title>
<g id="a_edge15_Node000001_Node000016"><a xlink:title=" ">
<path fill="none" stroke="#63b8ff" d="M94.27,-684.78C106.59,-686.59 120.14,-688.57 133.27,-690.5"/>
<polygon fill="#63b8ff" stroke="#63b8ff" points="132.75,-693.96 143.15,-691.94 133.77,-687.03 132.75,-693.96"/>
</a>
</g>
</g>
<!-- Node17 -->
<g id="Node000017" class="node">
<title>Node17</title>
<g id="a_Node000017"><a xlink:href="group__as3935__basic__driver.html#ga71283ec854b8a0d745ad6937354100fe" target="_top" xlink:title="set afe gain boost">
<polygon fill="white" stroke="#666666" points="253.25,-672 145,-672 145,-640 253.25,-640 253.25,-672"/>
<text xml:space="preserve" text-anchor="start" x="153" y="-658.5" font-family="Helvetica,sans-Serif" font-size="10.00">as3935_set_afe_gain</text>
<text xml:space="preserve" text-anchor="middle" x="199.12" y="-646.5" font-family="Helvetica,sans-Serif" font-size="10.00">_boost</text>
</a>
</g>
</g>
<!-- Node1&#45;&gt;Node17 -->
<g id="edge16_Node000001_Node000017" class="edge">
<title>Node1&#45;&gt;Node17</title>
<g id="a_edge16_Node000001_Node000017"><a xlink:title=" ">
<path fill="none" stroke="#63b8ff" d="M94.27,-671.22C106.59,-669.41 120.14,-667.43 133.27,-665.5"/>
<polygon fill="#63b8ff" stroke="#63b8ff" points="133.77,-668.97 143.15,-664.06 132.75,-662.04 133.77,-668.97"/>
</a>
</g>
</g>
<!-- Node18 -->
<g id="Node000018" class="node">
<title>Node18</title>
<g id="a_Node000018"><a xlink:href="group__as3935__basic__driver.html#ga583cd7acbe143b60509a0f0fc8391428" target="_top" xlink:title="calibrate rc osc">
<polygon fill="white" stroke="#666666" points="253.25,-622 145,-622 145,-590 253.25,-590 253.25,-622"/>
<text xml:space="preserve" text-anchor="start" x="153" y="-608.5" font-family="Helvetica,sans-Serif" font-size="10.00">as3935_set_calibrate</text>
<text xml:space="preserve" text-anchor="middle" x="199.12" y="-596.5" font-family="Helvetica,sans-Serif" font-size="10.00">_rc_osc</text>
</a>
</g>
</g>
<!-- Node1&#45;&gt;Node18 -->
<g id="edge17_Node000001_Node000018" class="edge">
<title>Node1&#45;&gt;Node18</title>
<g id="a_edge17_Node000001_Node000018"><a xlink:title=" ">
<path fill="none" stroke="#63b8ff" d="M64.21,-667.62C80.45,-657.48 106.35,-642.02 130,-631 133.1,-629.56 136.3,-628.14 139.56,-626.76"/>
<polygon fill="#63b8ff" stroke="#63b8ff" points="140.72,-630.06 148.66,-623.05 138.08,-623.58 140.72,-630.06"/>
</a>
</g>
</g>
<!-- Node19 -->
<g id="Node000019" class="node">
<title>Node19</title>
<g id="a_Node000019"><a xlink:href="group__as3935__basic__driver.html#ga127e93cbed022d95cbeafdab6aef8028" target="_top" xlink:title="enable or disable clear statistics">
<polygon fill="white" stroke="#666666" points="267.88,-572 130.38,-572 130.38,-552 267.88,-552 267.88,-572"/>
<text xml:space="preserve" text-anchor="middle" x="199.12" y="-558.5" font-family="Helvetica,sans-Serif" font-size="10.00">as3935_set_clear_statistics</text>
</a>
</g>
</g>
<!-- Node1&#45;&gt;Node19 -->
<g id="edge18_Node000001_Node000019" class="edge">
<title>Node1&#45;&gt;Node19</title>
<g id="a_edge18_Node000001_Node000019"><a xlink:title=" ">
<path fill="none" stroke="#63b8ff" d="M53.76,-667.75C65.47,-647.9 94,-604.1 130,-581 132.27,-579.55 134.65,-578.2 137.1,-576.96"/>
<polygon fill="#63b8ff" stroke="#63b8ff" points="138.38,-580.22 146.14,-573 135.58,-573.8 138.38,-580.22"/>
</a>
</g>
</g>
<!-- Node20 -->
<g id="Node000020" class="node">
<title>Node20</title>
<g id="a_Node000020"><a xlink:href="group__as3935__basic__driver.html#ga03577e3ae78ed4b43b70f5bf84a5b662" target="_top" xlink:title="set frequency division ration">
<polygon fill="white" stroke="#666666" points="256.25,-534 142,-534 142,-502 256.25,-502 256.25,-534"/>
<text xml:space="preserve" text-anchor="start" x="150" y="-520.5" font-family="Helvetica,sans-Serif" font-size="10.00">as3935_set_frequency</text>
<text xml:space="preserve" text-anchor="middle" x="199.12" y="-508.5" font-family="Helvetica,sans-Serif" font-size="10.00">_division_ration</text>
</a>
</g>
</g>
<!-- Node1&#45;&gt;Node20 -->
<g id="edge19_Node000001_Node000020" class="edge">
<title>Node1&#45;&gt;Node20</title>
<g id="a_edge19_Node000001_Node000020"><a xlink:title=" ">
<path fill="none" stroke="#63b8ff" d="M51.56,-667.58C60.64,-642.53 87.01,-578.36 130,-543 131.12,-542.08 132.28,-541.19 133.47,-540.33"/>
<polygon fill="#63b8ff" stroke="#63b8ff" points="135.19,-543.38 141.84,-535.14 131.5,-537.43 135.19,-543.38"/>
</a>
</g>
</g>
<!-- Node21 -->
<g id="Node000021" class="node">
<title>Node21</title>
<g id="a_Node000021"><a xlink:href="group__as3935__basic__driver.html#ga0c4fb7e233ca011684d5addb55495c6a" target="_top" xlink:title="set the chip interface">
<polygon fill="white" stroke="#666666" points="253.62,-484 144.62,-484 144.62,-464 253.62,-464 253.62,-484"/>
<text xml:space="preserve" text-anchor="middle" x="199.12" y="-470.5" font-family="Helvetica,sans-Serif" font-size="10.00">as3935_set_interface</text>
</a>
</g>
</g>
<!-- Node1&#45;&gt;Node21 -->
<g id="edge20_Node000001_Node000021" class="edge">
<title>Node1&#45;&gt;Node21</title>
<g id="a_edge20_Node000001_Node000021"><a xlink:title=" ">
<path fill="none" stroke="#63b8ff" d="M49.44,-667.8C54.4,-636.61 73.65,-541.7 130,-493 131.47,-491.73 133.02,-490.55 134.63,-489.44"/>
<polygon fill="#63b8ff" stroke="#63b8ff" points="136.11,-492.62 143.12,-484.67 132.68,-486.52 136.11,-492.62"/>
</a>
</g>
</g>
<!-- Node22 -->
<g id="Node000022" class="node">
<title>Node22</title>
<g id="a_Node000022"><a xlink:href="group__as3935__basic__driver.html#ga8568739ec7fdf528d96528b353f2c011" target="_top" xlink:title="set internal tuning capacitor">
<polygon fill="white" stroke="#666666" points="250.62,-446 147.62,-446 147.62,-414 250.62,-414 250.62,-446"/>
<text xml:space="preserve" text-anchor="start" x="155.62" y="-432.5" font-family="Helvetica,sans-Serif" font-size="10.00">as3935_set_internal</text>
<text xml:space="preserve" text-anchor="middle" x="199.12" y="-420.5" font-family="Helvetica,sans-Serif" font-size="10.00">_tuning_capacitor</text>
</a>
</g>
</g>
<!-- Node1&#45;&gt;Node22 -->
<g id="edge21_Node000001_Node000022" class="edge">
<title>Node1&#45;&gt;Node22</title>
<g id="a_edge21_Node000001_Node000022"><a xlink:title=" ">
<path fill="none" stroke="#63b8ff" d="M48.76,-667.98C51.93,-633.44 66.98,-517.98 130,-455 132.3,-452.7 134.82,-450.62 137.51,-448.72"/>
<polygon fill="#63b8ff" stroke="#63b8ff" points="139.05,-451.88 145.85,-443.75 135.46,-445.86 139.05,-451.88"/>
</a>
</g>
</g>
<!-- Node23 -->
<g id="Node000023" class="node">
<title>Node23</title>
<g id="a_Node000023"><a xlink:href="group__as3935__basic__driver.html#gac4325e5d6aade5374e90c50374f870cc" target="_top" xlink:title="enable or disable lc osc display on irq">
<polygon fill="white" stroke="#666666" points="267.12,-396 131.12,-396 131.12,-364 267.12,-364 267.12,-396"/>
<text xml:space="preserve" text-anchor="start" x="139.12" y="-382.5" font-family="Helvetica,sans-Serif" font-size="10.00">as3935_set_lc_osc_display</text>
<text xml:space="preserve" text-anchor="middle" x="199.12" y="-370.5" font-family="Helvetica,sans-Serif" font-size="10.00">_on_irq</text>
</a>
</g>
</g>
<!-- Node1&#45;&gt;Node23 -->
<g id="edge22_Node000001_Node000023" class="edge">
<title>Node1&#45;&gt;Node23</title>
<g id="a_edge22_Node000001_Node000023"><a xlink:title=" ">
<path fill="none" stroke="#63b8ff" d="M47.98,-667.76C48.48,-628.25 55.53,-484.08 130,-405 130.58,-404.38 131.18,-403.78 131.8,-403.19"/>
<polygon fill="#63b8ff" stroke="#63b8ff" points="133.64,-406.19 139.36,-397.27 129.33,-400.68 133.64,-406.19"/>
</a>
</g>
</g>
<!-- Node24 -->
<g id="Node000024" class="node">
<title>Node24</title>
<g id="a_Node000024"><a xlink:href="group__as3935__basic__driver.html#gaa68ddfabaae7247f99db8399b360e6d4" target="_top" xlink:title="set lightning min number">
<polygon fill="white" stroke="#666666" points="252.88,-346 145.38,-346 145.38,-314 252.88,-314 252.88,-346"/>
<text xml:space="preserve" text-anchor="start" x="153.38" y="-332.5" font-family="Helvetica,sans-Serif" font-size="10.00">as3935_set_lightning</text>
<text xml:space="preserve" text-anchor="middle" x="199.12" y="-320.5" font-family="Helvetica,sans-Serif" font-size="10.00">_min_number</text>
</a>
</g>
</g>
<!-- Node1&#45;&gt;Node24 -->
<g id="edge23_Node000001_Node000024" class="edge">
<title>Node1&#45;&gt;Node24</title>
<g id="a_edge23_Node000001_Node000024"><a xlink:title=" ">
<path fill="none" stroke="#63b8ff" d="M49.31,-667.73C55.83,-618.11 86.22,-403.55 130,-355 131.71,-353.1 133.58,-351.34 135.58,-349.72"/>
<polygon fill="#63b8ff" stroke="#63b8ff" points="137.36,-352.74 143.72,-344.27 133.46,-346.92 137.36,-352.74"/>
</a>
</g>
</g>
<!-- Node25 -->
<g id="Node000025" class="node">
<title>Node25</title>
<g id="a_Node000025"><a xlink:href="group__as3935__basic__driver.html#ga830ad4f8ec042359797e805787bd6ab0" target="_top" xlink:title="enable or disable mask disturber">
<polygon fill="white" stroke="#666666" points="268.25,-296 130,-296 130,-276 268.25,-276 268.25,-296"/>
<text xml:space="preserve" text-anchor="middle" x="199.12" y="-282.5" font-family="Helvetica,sans-Serif" font-size="10.00">as3935_set_mask_disturber</text>
</a>
</g>
</g>
<!-- Node1&#45;&gt;Node25 -->
<g id="edge24_Node000001_Node000025" class="edge">
<title>Node1&#45;&gt;Node25</title>
<g id="a_edge24_Node000001_Node000025"><a xlink:title=" ">
<path fill="none" stroke="#63b8ff" d="M48.86,-667.56C53.59,-612.88 78.06,-359.91 130,-305 130.6,-304.36 131.22,-303.75 131.86,-303.15"/>
<polygon fill="#63b8ff" stroke="#63b8ff" points="133.77,-306.09 139.81,-297.38 129.66,-300.43 133.77,-306.09"/>
</a>
</g>
</g>
<!-- Node26 -->
<g id="Node000026" class="node">
<title>Node26</title>
<g id="a_Node000026"><a xlink:href="group__as3935__basic__driver.html#ga570aa67ef481a25c88f28b37a0c0dd00" target="_top" xlink:title="set noise floor level">
<polygon fill="white" stroke="#666666" points="258.5,-258 139.75,-258 139.75,-226 258.5,-226 258.5,-258"/>
<text xml:space="preserve" text-anchor="start" x="147.75" y="-244.5" font-family="Helvetica,sans-Serif" font-size="10.00">as3935_set_noise_floor</text>
<text xml:space="preserve" text-anchor="middle" x="199.12" y="-232.5" font-family="Helvetica,sans-Serif" font-size="10.00">_level</text>
</a>
</g>
</g>
<!-- Node1&#45;&gt;Node26 -->
<g id="edge25_Node000001_Node000026" class="edge">
<title>Node1&#45;&gt;Node26</title>
<g id="a_edge25_Node000001_Node000026"><a xlink:title=" ">
<path fill="none" stroke="#63b8ff" d="M48.71,-667.74C52.86,-610.45 75.7,-330.43 130,-267 130.35,-266.59 130.7,-266.19 131.07,-265.8"/>
<polygon fill="#63b8ff" stroke="#63b8ff" points="133.15,-268.63 138.42,-259.44 128.57,-263.33 133.15,-268.63"/>
</a>
</g>
</g>
<!-- Node27 -->
<g id="Node000027" class="node">
<title>Node27</title>
<g id="a_Node000027"><a xlink:href="group__as3935__basic__driver.html#ga17e77916c08797628c6a204f7f867f98" target="_top" xlink:title="set power down">
<polygon fill="white" stroke="#666666" points="262.25,-208 136,-208 136,-188 262.25,-188 262.25,-208"/>
<text xml:space="preserve" text-anchor="middle" x="199.12" y="-194.5" font-family="Helvetica,sans-Serif" font-size="10.00">as3935_set_power_down</text>
</a>
</g>
</g>
<!-- Node1&#45;&gt;Node27 -->
<g id="edge26_Node000001_Node000027" class="edge">
<title>Node1&#45;&gt;Node27</title>
<g id="a_edge26_Node000001_Node000027"><a xlink:title=" ">
<path fill="none" stroke="#63b8ff" d="M48.39,-667.66C50.9,-605.93 66.87,-286.5 130,-217 130.59,-216.35 131.2,-215.73 131.82,-215.12"/>
<polygon fill="#63b8ff" stroke="#63b8ff" points="133.75,-218.05 139.67,-209.26 129.56,-212.44 133.75,-218.05"/>
</a>
</g>
</g>
<!-- Node28 -->
<g id="Node000028" class="node">
<title>Node28</title>
<g id="a_Node000028"><a xlink:href="group__as3935__basic__driver.html#ga2ac29971a2cb1055f804c4696fef907a" target="_top" xlink:title="set spike rejection">
<polygon fill="white" stroke="#666666" points="267.5,-170 130.75,-170 130.75,-150 267.5,-150 267.5,-170"/>
<text xml:space="preserve" text-anchor="middle" x="199.12" y="-156.5" font-family="Helvetica,sans-Serif" font-size="10.00">as3935_set_spike_rejection</text>
</a>
</g>
</g>
<!-- Node1&#45;&gt;Node28 -->
<g id="edge27_Node000001_Node000028" class="edge">
<title>Node1&#45;&gt;Node28</title>
<g id="a_edge27_Node000001_Node000028"><a xlink:title=" ">
<path fill="none" stroke="#63b8ff" d="M48.23,-667.66C49.91,-603.04 62.02,-254.83 130,-179 130.47,-178.47 130.96,-177.96 131.46,-177.46"/>
<polygon fill="#63b8ff" stroke="#63b8ff" points="133.52,-180.29 139.32,-171.42 129.25,-174.74 133.52,-180.29"/>
</a>
</g>
</g>
<!-- Node29 -->
<g id="Node000029" class="node">
<title>Node29</title>
<g id="a_Node000029"><a xlink:href="group__as3935__basic__driver.html#gab5ff3d1591416af1c8280a551a8658dd" target="_top" xlink:title="enable or disable system rc osc display on irq">
<polygon fill="white" stroke="#666666" points="257.75,-132 140.5,-132 140.5,-100 257.75,-100 257.75,-132"/>
<text xml:space="preserve" text-anchor="start" x="148.5" y="-118.5" font-family="Helvetica,sans-Serif" font-size="10.00">as3935_set_system_rc</text>
<text xml:space="preserve" text-anchor="middle" x="199.12" y="-106.5" font-family="Helvetica,sans-Serif" font-size="10.00">_osc_display_on_irq</text>
</a>
</g>
</g>
<!-- Node1&#45;&gt;Node29 -->
<g id="edge28_Node000001_Node000029" class="edge">
<title>Node1&#45;&gt;Node29</title>
<g id="a_edge28_Node000001_Node000029"><a xlink:title=" ">
<path fill="none" stroke="#63b8ff" d="M48.18,-667.83C49.58,-601.13 60.46,-226.06 130,-141 130.45,-140.45 130.91,-139.91 131.38,-139.39"/>
<polygon fill="#63b8ff" stroke="#63b8ff" points="133.63,-142.07 138.88,-132.87 129.04,-136.79 133.63,-142.07"/>
</a>
</g>
</g>
<!-- Node30 -->
<g id="Node000030" class="node">
<title>Node30</title>
<g id="a_Node000030"><a xlink:href="group__as3935__basic__driver.html#gadd6c1ee631adef9d4bd86fbe37ee7b56" target="_top" xlink:title="enable or disable timer rc osc display on irq">
<polygon fill="white" stroke="#666666" points="252.5,-82 145.75,-82 145.75,-50 252.5,-50 252.5,-82"/>
<text xml:space="preserve" text-anchor="start" x="153.75" y="-68.5" font-family="Helvetica,sans-Serif" font-size="10.00">as3935_set_timer_rc</text>
<text xml:space="preserve" text-anchor="middle" x="199.12" y="-56.5" font-family="Helvetica,sans-Serif" font-size="10.00">_osc_display_on_irq</text>
</a>
</g>
</g>
<!-- Node1&#45;&gt;Node30 -->
<g id="edge29_Node000001_Node000030" class="edge">
<title>Node1&#45;&gt;Node30</title>
<g id="a_edge29_Node000001_Node000030"><a xlink:title=" ">
<path fill="none" stroke="#63b8ff" d="M48.04,-667.82C48.49,-597.55 54.4,-184.69 130,-91 131.83,-88.73 133.9,-86.66 136.13,-84.78"/>
<polygon fill="#63b8ff" stroke="#63b8ff" points="137.91,-87.8 144.21,-79.28 133.97,-82.01 137.91,-87.8"/>
</a>
</g>
</g>
<!-- Node31 -->
<g id="Node000031" class="node">
<title>Node31</title>
<g id="a_Node000031"><a xlink:href="group__as3935__basic__driver.html#ga2863aa909d525d759d3fc0c09f5b4123" target="_top" xlink:title="set watchdog threshold">
<polygon fill="white" stroke="#666666" points="255.88,-32 142.38,-32 142.38,0 255.88,0 255.88,-32"/>
<text xml:space="preserve" text-anchor="start" x="150.38" y="-18.5" font-family="Helvetica,sans-Serif" font-size="10.00">as3935_set_watchdog</text>
<text xml:space="preserve" text-anchor="middle" x="199.12" y="-6.5" font-family="Helvetica,sans-Serif" font-size="10.00">_threshold</text>
</a>
</g>
</g>
<!-- Node1&#45;&gt;Node31 -->
<g id="edge30_Node000001_Node000031" class="edge">
<title>Node1&#45;&gt;Node31</title>
<g id="a_edge30_Node000001_Node000031"><a xlink:title=" ">
<path fill="none" stroke="#63b8ff" d="M47.92,-667.91C47.49,-594.58 48.28,-143.4 130,-41 131.06,-39.68 132.19,-38.42 133.39,-37.24"/>
<polygon fill="#63b8ff" stroke="#63b8ff" points="135.27,-40.21 140.95,-31.27 130.93,-34.72 135.27,-40.21"/>
</a>
</g>
</g>
</g>
</svg>
